# xmcd
# Copyright (C) 1995-1998 Ti Kan
#
# Track frame offsets:
#       151
#       16269
#       32012
#       52181
#       67973
#       82659
#       96190
#       110507
#       127737
#       138232
#       155046
#       165369
#       178410
#       194822
#       217248
#       236222
#       263150
#       282846
#       304547
#
# Disc length: 4301 seconds
#
# Revision: 0
# Processed by: cddbd v1.5.2PL0 Copyright (c) Steve Scherf et al.
# Submitted via: CD-Transfer v1.0
#
DISCID=0e10cb13
DTITLE=Franklin, Aretha - 
DYEAR=1900
DGENRE=
TTITLE0=You Are All I Need To Get By
TTITLE1=Spanish Harlem
TTITLE2=Angel
TTITLE3=Let It Be
TTITLE4=Son Of A Preacher Man
TTITLE5=Don't Play That Song
TTITLE6=Rock Steady
TTITLE7=Ain't Nothing Like The Real Thing
TTITLE8=House That Jack Build, The
TTITLE9=People Get Ready
TTITLE10=Save Me
TTITLE11=Oh No, Not My Baby
TTITLE12=Long And Winding Road, The
TTITLE13=Jumping Jack Flash
TTITLE14=Freeway Of Love
TTITLE15=Sisters Are Doin' It For Themselves
TTITLE16=Through The Storm
TTITLE17=It Isn't, It Wasn't, It Ain't Never Gonna Be
TTITLE18=I Knew You Were Waiting (For Me) 
EXTD=
EXTT0=
EXTT1=
EXTT2=
EXTT3=
EXTT4=
EXTT5=
EXTT6=
EXTT7=
EXTT8=
EXTT9=
EXTT10=
EXTT11=
EXTT12=
EXTT13=
EXTT14=
EXTT15=
EXTT16=
EXTT17=
EXTT18=
PLAYORDER=
